if (_typeface_js && _typeface_js.loadFace) _typeface_js.loadFace({"glyphs":{"S":{"x_min":65.46875,"x_max":672,"ha":741,"o":"m 336 -14 q 219 0 270 -14 q 134 39 168 14 q 82 101 100 65 q 65 181 65 137 q 91 249 65 223 q 165 275 117 275 q 175 191 165 231 q 208 121 186 151 q 264 72 230 90 q 346 54 298 54 q 490 99 438 54 q 542 228 542 144 q 531 296 542 266 q 496 349 520 325 q 431 397 471 374 q 331 445 391 420 q 221 501 268 471 q 142 568 173 531 q 96 651 111 605 q 81 753 81 696 q 103 859 81 813 q 165 938 125 906 q 259 988 205 971 q 378 1005 314 1005 q 486 992 439 1005 q 566 957 534 979 q 616 907 599 935 q 633 849 633 879 q 604 781 633 804 q 526 759 575 759 q 518 822 526 791 q 492 879 510 854 q 445 919 474 903 q 373 935 416 935 q 303 923 333 935 q 250 891 272 912 q 218 842 229 871 q 207 777 207 813 q 217 704 207 735 q 253 647 228 672 q 318 599 278 622 q 418 552 359 576 q 525 499 478 527 q 604 437 572 471 q 654 360 637 403 q 672 264 672 318 q 648 147 672 198 q 580 59 624 95 q 475 4 537 23 q 336 -14 413 -14 "},"/":{"x_min":0,"x_max":392.125,"ha":392,"o":"m 80 -168 l 0 -168 l 313 1055 l 392 1055 l 80 -168 "},"K":{"x_min":52,"x_max":969.0625,"ha":953,"o":"m 600 770 q 636 816 621 796 q 659 852 651 836 q 671 881 667 868 q 675 903 675 893 q 658 927 675 921 q 608 934 641 934 l 608 991 l 909 991 l 909 934 q 864 924 885 934 q 820 899 842 915 q 776 858 799 882 l 726 804 l 529 577 l 816 169 q 892 86 855 114 q 966 58 928 58 l 969 58 l 969 0 l 954 0 q 841 5 885 0 q 768 25 798 10 q 715 63 738 39 q 668 124 693 87 l 434 467 l 319 372 l 319 157 q 327 105 319 125 q 351 75 336 85 q 387 61 366 64 q 430 58 407 58 l 448 58 l 448 0 l 52 0 l 52 58 l 69 58 q 112 61 91 58 q 147 73 132 64 q 172 101 163 83 q 181 150 181 120 l 181 838 q 172 887 181 869 q 147 916 163 906 q 112 929 132 926 q 69 933 91 933 l 52 933 l 52 991 l 448 991 l 448 933 l 430 933 q 387 929 407 933 q 351 915 366 926 q 327 885 336 905 q 319 833 319 865 l 319 441 l 600 770 "},"7":{"x_min":84,"x_max":696.609375,"ha":762,"o":"m 259 0 l 580 879 l 220 879 q 141 808 147 879 l 141 739 l 84 739 l 84 990 l 696 990 l 696 950 l 361 0 l 259 0 "},"d":{"x_min":75,"x_max":811,"ha":835,"o":"m 689 152 q 697 103 689 122 q 721 75 706 85 q 757 62 737 65 q 799 59 777 59 l 811 59 l 811 1 l 581 1 l 566 125 l 561 125 q 526 68 545 93 q 481 24 506 42 q 424 -3 455 6 q 352 -13 392 -13 q 233 9 285 -13 q 146 79 181 32 q 92 199 110 126 q 75 371 75 271 q 92 544 75 471 q 146 665 110 617 q 233 735 181 712 q 352 758 285 758 q 423 749 391 758 q 480 724 455 740 q 526 685 506 707 q 561 636 546 662 l 565 636 q 565 699 565 669 l 565 751 q 565 788 565 776 l 565 902 q 555 951 565 933 q 530 980 546 970 q 493 993 514 990 q 449 997 471 997 l 438 997 l 438 1055 l 689 1055 l 689 152 m 375 76 q 464 93 428 76 q 521 148 499 111 q 552 240 543 184 q 561 371 561 296 q 552 499 561 443 q 521 592 543 554 q 463 649 499 629 q 374 669 428 669 q 297 649 329 669 q 245 591 265 629 q 215 498 225 553 q 206 369 206 442 q 245 149 206 222 q 375 76 285 76 "},",":{"x_min":41,"x_max":264,"ha":340,"o":"m 264 58 q 252 -27 264 14 q 213 -103 240 -68 q 144 -167 186 -138 q 41 -213 102 -195 l 41 -155 q 139 -102 108 -133 q 171 -30 171 -71 q 163 -7 171 -16 q 145 8 156 1 q 121 22 133 15 q 96 38 108 29 q 78 62 85 48 q 71 96 71 75 q 96 157 71 136 q 159 179 122 179 q 199 171 181 179 q 232 148 218 163 q 255 110 247 132 q 264 58 264 87 "},"Y":{"x_min":-7,"x_max":854,"ha":850,"o":"m 216 0 l 216 58 l 247 58 q 290 61 270 58 q 325 73 310 64 q 350 101 341 83 q 359 150 359 120 l 359 413 l 107 859 q 85 893 95 879 q 65 916 75 907 q 40 928 54 924 q 10 933 27 933 l -7 933 l -7 991 l 367 991 l 367 933 l 316 933 q 286 929 298 933 q 268 920 274 926 q 259 905 261 914 q 257 888 257 897 q 265 849 257 869 q 281 814 273 829 l 381 629 q 422 544 405 586 q 450 470 439 502 q 465 503 456 485 l 485 542 l 508 585 l 531 629 l 618 788 q 637 833 631 812 q 644 871 644 854 q 622 917 644 902 q 561 933 600 933 l 522 933 l 522 991 l 854 991 l 854 933 l 838 933 q 810 927 823 933 q 784 910 797 922 q 756 877 771 897 q 725 825 742 856 l 497 413 l 497 157 q 505 105 497 125 q 529 75 514 85 q 564 61 544 64 q 607 58 584 58 l 639 58 l 639 0 l 216 0 "},"E":{"x_min":52,"x_max":786.890625,"ha":849,"o":"m 319 69 l 581 69 q 637 78 614 69 q 675 102 659 87 q 699 139 690 118 q 711 182 707 159 l 720 242 l 786 242 l 786 0 l 52 0 l 52 58 l 69 58 q 112 61 91 58 q 147 73 132 64 q 172 101 163 83 q 181 151 181 120 l 181 833 q 172 885 181 865 q 148 915 163 905 q 112 929 133 926 q 69 932 92 932 l 52 932 l 52 991 l 741 991 l 741 748 l 674 748 l 667 808 q 657 851 665 831 q 635 888 649 872 q 599 912 621 903 q 547 922 578 922 l 319 922 l 319 553 l 647 553 l 647 485 l 319 485 l 319 69 "},"y":{"x_min":5,"x_max":769,"ha":769,"o":"m 769 744 l 769 686 l 765 686 q 730 681 745 686 q 704 665 716 677 q 683 631 693 652 q 661 577 673 610 l 454 -5 q 409 -123 430 -72 q 364 -210 388 -174 q 314 -270 341 -247 q 251 -308 286 -294 q 170 -328 216 -323 q 63 -334 124 -334 l 52 -334 l 52 -268 q 170 -246 120 -268 q 256 -189 220 -225 q 317 -102 292 -152 q 358 5 341 -53 l 106 612 q 88 647 96 633 q 68 670 79 661 q 43 682 57 679 q 9 686 29 686 l 5 686 l 5 744 l 332 744 l 332 686 l 328 686 q 266 669 286 686 q 246 618 246 653 q 248 595 246 607 q 256 568 250 583 l 356 320 l 376 268 q 396 212 386 240 l 412 161 q 422 119 419 136 l 426 119 q 446 193 433 149 q 476 287 459 237 l 567 557 q 576 590 573 574 q 579 617 579 606 q 556 669 579 653 q 489 686 534 686 l 486 686 l 486 744 l 769 744 "},"\"":{"x_min":77.765625,"x_max":477.859375,"ha":556,"o":"m 77 991 l 221 991 l 180 665 l 118 665 l 77 991 m 333 991 l 477 991 l 436 665 l 374 665 l 333 991 "},"g":{"x_min":31,"x_max":716,"ha":733,"o":"m 716 715 q 711 687 716 700 q 698 664 707 674 q 676 648 690 654 q 644 643 662 643 q 642 659 644 651 q 634 674 640 667 q 621 685 629 681 q 598 690 612 690 q 567 685 581 690 q 539 673 553 681 q 578 604 563 644 q 593 505 593 565 q 577 410 593 453 q 532 334 562 366 q 455 284 501 302 q 347 267 409 267 q 329 267 339 267 l 309 267 q 291 268 299 267 q 277 270 282 269 q 252 255 264 263 q 231 237 240 247 q 217 213 222 226 q 212 185 212 201 q 218 158 212 168 q 235 142 224 147 q 262 134 246 136 q 295 133 277 133 l 450 133 q 553 117 511 133 q 623 74 596 101 q 662 8 650 46 q 675 -74 675 -29 q 653 -182 675 -134 q 587 -263 631 -230 q 474 -315 542 -297 q 314 -334 406 -334 q 101 -280 171 -334 q 31 -131 31 -226 q 44 -60 31 -90 q 82 -7 58 -29 q 136 27 106 13 q 201 46 167 40 q 173 63 187 53 q 149 87 160 73 q 132 120 139 101 q 126 161 126 138 q 147 232 126 202 q 215 291 168 262 q 162 324 185 303 q 124 373 139 346 q 100 433 108 401 q 92 500 92 466 q 107 608 92 561 q 155 689 123 656 q 235 740 187 722 q 347 758 283 758 q 396 754 372 758 q 440 744 420 750 q 477 729 460 737 q 503 712 493 721 q 526 736 513 723 q 556 760 540 749 q 593 779 573 772 q 635 787 612 787 q 671 781 656 787 q 696 765 686 775 q 711 742 706 755 q 716 715 716 729 m 141 -122 q 148 -179 141 -153 q 176 -225 156 -206 q 230 -255 196 -244 q 316 -266 264 -266 q 437 -253 389 -266 q 512 -218 484 -240 q 551 -165 540 -196 q 563 -97 563 -134 q 554 -44 563 -65 q 527 -12 545 -24 q 483 4 509 0 q 424 9 457 9 l 290 9 q 235 3 261 9 q 187 -15 208 -1 q 153 -55 166 -29 q 141 -122 141 -81 m 220 504 q 248 374 220 415 q 343 333 277 333 q 400 343 377 333 q 437 374 423 353 q 458 428 452 395 q 465 506 465 461 q 437 645 465 600 q 342 690 409 690 q 248 644 276 690 q 220 504 220 598 "},"–":{"x_min":-7,"x_max":687,"ha":680,"o":"m 687 332 l -7 332 l -7 414 l 687 414 l 687 332 "},"e":{"x_min":75,"x_max":660,"ha":728,"o":"m 372 683 q 254 620 295 683 q 213 437 213 557 l 522 437 q 513 537 522 491 q 488 615 505 582 q 442 665 470 647 q 372 683 413 683 m 390 -14 q 258 11 316 -14 q 158 85 199 36 q 96 205 118 134 q 75 366 75 276 q 153 659 75 561 q 376 758 231 758 q 495 736 442 758 q 584 674 547 715 q 640 570 620 632 q 660 425 660 508 l 660 362 l 207 362 q 221 231 207 286 q 260 141 234 176 q 323 89 286 106 q 409 73 360 73 q 474 81 444 73 q 529 102 504 89 q 573 133 554 116 q 604 170 592 151 q 621 153 613 165 q 630 122 630 140 q 615 77 630 101 q 570 33 600 53 q 496 0 540 13 q 390 -14 451 -14 "},"J":{"x_min":-15,"x_max":448,"ha":486,"o":"m -15 -268 l -2 -268 q 75 -255 41 -268 q 133 -213 109 -242 q 168 -134 156 -183 q 181 -12 181 -85 l 181 838 q 172 887 181 869 q 147 916 163 906 q 112 929 132 926 q 69 933 91 933 l 52 933 l 52 991 l 448 991 l 448 933 l 430 933 q 387 929 407 933 q 351 915 366 926 q 327 885 336 905 q 319 833 319 865 l 319 -10 q 295 -166 319 -104 q 229 -265 271 -228 q 130 -318 187 -302 q 8 -334 73 -334 l -15 -334 l -15 -268 "}," ":{"x_min":0,"x_max":0,"ha":349},"|":{"x_min":339,"x_max":421,"ha":761,"o":"m 421 -334 l 339 -334 l 339 1055 l 421 1055 l 421 -334 "}," ":{"x_min":0,"x_max":0,"ha":209},"‐":{"x_min":34,"x_max":388,"ha":422,"o":"m 34 326 l 34 430 l 388 430 l 388 326 l 34 326 "}," ":{"x_min":0,"x_max":0,"ha":524}," ":{"x_min":0,"x_max":0,"ha":1048},"^":{"x_min":69.125,"x_max":689.859375,"ha":761,"o":"m 355 992 l 402 992 l 689 370 l 598 370 l 378 864 l 160 370 l 69 370 l 355 992 "},"q":{"x_min":75,"x_max":811,"ha":835,"o":"m 811 -334 l 404 -334 l 404 -276 l 449 -276 q 493 -272 472 -276 q 529 -258 513 -269 q 553 -228 544 -248 q 563 -175 563 -208 l 563 -56 q 563 -1 563 -32 q 563 58 563 29 l 563 124 l 560 124 q 525 67 545 92 q 480 23 505 41 q 423 -4 455 5 q 351 -14 391 -14 q 233 8 284 -14 q 146 78 181 31 q 92 198 110 125 q 75 370 75 270 q 92 544 75 471 q 146 665 110 617 q 233 735 181 712 q 351 758 284 758 q 422 749 391 758 q 480 723 454 740 q 525 685 505 707 q 560 635 545 662 l 568 635 l 592 744 l 811 744 l 811 686 l 799 686 q 756 682 777 686 q 720 668 735 679 q 696 638 705 658 q 688 585 688 618 l 688 -181 q 696 -230 688 -211 q 721 -259 705 -248 q 756 -272 736 -269 q 799 -276 777 -276 l 811 -276 l 811 -334 m 375 75 q 463 92 428 75 q 520 147 499 110 q 551 239 542 184 q 560 370 560 295 q 551 498 560 443 q 520 592 542 554 q 463 649 499 629 q 373 669 427 669 q 297 649 329 669 q 245 591 265 629 q 215 497 225 553 q 206 369 206 441 q 245 148 206 221 q 375 75 284 75 "},"b":{"x_min":25,"x_max":761,"ha":835,"o":"m 761 373 q 742 200 761 273 q 689 79 724 127 q 602 9 654 32 q 483 -13 550 -13 q 412 -4 444 -13 q 355 20 380 4 q 309 59 329 37 q 275 109 290 82 l 267 109 l 243 1 l 25 1 l 25 59 l 35 59 q 79 62 58 59 q 114 76 99 65 q 138 106 129 86 q 147 158 147 126 l 147 902 q 138 951 147 933 q 113 980 129 970 q 78 993 98 990 q 35 997 58 997 l 25 997 l 25 1055 l 273 1055 l 273 799 q 273 745 273 776 q 273 685 273 714 l 273 620 l 275 620 q 310 676 290 651 q 354 720 329 702 q 411 748 379 738 q 483 758 443 758 q 602 735 550 758 q 689 665 654 712 q 742 545 724 618 q 761 373 761 473 m 460 669 q 371 651 407 669 q 314 596 336 633 q 284 504 293 560 q 275 373 275 449 q 284 245 275 301 q 315 152 293 190 q 372 95 336 114 q 461 76 407 76 q 538 95 506 76 q 590 152 569 114 q 619 246 610 190 q 629 375 629 302 q 619 504 629 449 q 590 595 610 559 q 537 650 569 632 q 460 669 505 669 "},"D":{"x_min":52,"x_max":912,"ha":990,"o":"m 912 496 q 884 291 912 382 q 801 134 856 199 q 662 34 745 69 q 468 0 579 0 l 52 0 l 52 58 l 69 58 q 112 62 92 58 q 148 76 133 65 q 172 106 163 86 q 181 158 181 125 l 181 838 q 172 887 181 869 q 147 916 163 906 q 112 929 132 926 q 69 932 91 932 l 52 932 l 52 991 l 468 991 q 656 958 573 991 q 795 862 738 925 q 882 706 852 799 q 912 496 912 614 m 437 71 q 578 99 518 71 q 680 181 639 127 q 740 314 720 235 q 761 497 761 394 q 680 812 761 703 q 438 922 599 922 l 319 922 l 319 71 l 437 71 "},"z":{"x_min":57,"x_max":616,"ha":696,"o":"m 462 79 q 501 88 486 79 q 527 113 517 97 q 544 149 537 129 q 555 192 550 170 l 561 224 l 616 224 l 616 0 l 57 0 l 57 55 l 451 665 l 239 665 q 195 657 212 665 q 167 636 177 650 q 149 601 156 622 q 134 552 142 580 l 133 547 l 83 547 l 83 744 l 611 744 l 611 687 l 215 79 l 462 79 "}," ":{"x_min":0,"x_max":0,"ha":131},"w":{"x_min":1,"x_max":1171,"ha":1172,"o":"m 647 740 l 783 328 l 800 275 l 817 218 l 832 164 q 842 122 838 139 l 846 122 q 865 207 852 156 q 899 324 878 257 l 967 548 q 976 586 972 566 q 980 617 980 606 q 957 669 980 653 q 889 686 935 686 l 880 686 l 880 744 l 1171 744 l 1171 686 l 1153 686 q 1119 681 1133 686 q 1093 665 1104 677 q 1071 633 1081 654 q 1051 577 1061 612 l 876 0 l 767 0 l 604 488 l 580 580 l 387 0 l 280 0 l 102 612 q 85 648 94 633 q 65 670 76 662 q 39 682 54 679 q 5 686 24 686 l 1 686 l 1 744 l 337 744 l 337 686 l 319 686 q 258 673 278 686 q 238 627 238 661 q 241 599 238 616 q 249 568 245 583 l 312 334 l 326 279 q 339 220 333 250 l 351 165 q 360 122 356 139 l 364 122 q 373 163 367 139 q 386 212 378 186 l 402 267 q 420 320 411 295 l 561 740 l 647 740 "},"$":{"x_min":90,"x_max":666,"ha":762,"o":"m 413 949 q 516 936 473 949 q 587 903 559 923 q 626 854 614 882 q 638 794 638 826 q 609 726 638 749 q 531 704 580 704 q 526 765 531 734 q 508 821 521 796 q 472 864 495 846 q 413 886 448 882 l 413 562 q 521 507 473 535 q 600 449 568 480 q 649 379 632 417 q 666 291 666 341 q 599 129 666 187 q 413 58 533 71 l 413 -110 l 345 -110 l 345 56 q 276 59 310 56 q 208 69 241 62 q 145 87 175 76 q 90 112 115 97 l 90 326 l 147 326 q 161 250 147 287 q 202 184 175 214 q 264 136 228 155 q 345 118 301 118 l 345 459 q 236 517 280 488 q 164 577 192 545 q 125 645 137 608 q 113 727 113 682 q 129 812 113 774 q 175 878 145 850 q 248 923 205 906 q 345 946 291 940 l 345 1055 l 413 1055 l 413 949 m 541 270 q 534 320 541 298 q 512 361 527 342 q 472 396 496 380 q 413 429 448 412 l 413 120 q 507 171 474 131 q 541 270 541 210 m 235 739 q 242 687 235 709 q 263 648 249 665 q 297 618 277 631 q 345 592 318 604 l 345 883 q 297 864 318 877 q 262 832 276 850 q 242 789 249 813 q 235 739 235 766 "},"™":{"x_min":38.484375,"x_max":1079,"ha":1136,"o":"m 878 511 l 878 548 q 915 554 901 548 q 931 585 929 561 l 931 895 l 776 511 l 729 511 l 575 896 l 575 590 q 589 555 575 562 q 630 548 603 548 l 630 511 l 465 511 l 465 548 l 478 548 q 515 554 499 548 q 531 586 531 561 l 531 913 q 526 934 531 926 q 515 945 522 941 q 498 950 507 949 q 478 952 488 952 l 465 952 l 465 991 l 621 991 l 771 606 l 925 991 l 1079 991 l 1079 952 l 1064 952 q 1043 950 1053 952 q 1027 945 1034 949 q 1016 932 1020 941 q 1013 909 1013 924 l 1013 590 q 1016 568 1013 576 q 1027 555 1020 560 q 1043 549 1034 550 q 1064 548 1053 548 l 1079 548 l 1079 511 l 878 511 m 280 590 q 284 568 280 576 q 295 555 288 560 q 312 549 302 550 q 331 548 321 548 l 353 548 l 353 511 l 122 511 l 122 548 l 145 548 q 164 549 155 548 q 180 554 174 550 q 191 566 187 558 q 196 586 196 574 l 196 946 l 136 946 q 111 942 121 946 q 95 932 101 939 q 86 916 89 925 q 81 898 82 908 l 76 865 l 38 865 l 38 991 l 439 991 l 439 865 l 402 865 l 396 898 q 382 932 394 918 q 342 946 371 946 l 280 946 l 280 590 "},"\\":{"x_min":0,"x_max":392.125,"ha":392,"o":"m 0 1055 l 79 1055 l 392 -168 l 311 -168 l 0 1055 "},"’":{"x_min":41,"x_max":264,"ha":340,"o":"m 264 870 q 252 784 264 826 q 213 708 240 743 q 144 644 186 673 q 41 598 102 616 l 41 656 q 139 709 108 678 q 171 781 171 740 q 163 804 171 795 q 145 820 156 813 q 121 834 133 827 q 96 850 108 841 q 78 874 85 860 q 71 908 71 887 q 96 969 71 948 q 159 991 122 991 q 199 983 181 991 q 232 960 218 975 q 255 922 247 944 q 264 870 264 899 "},"~":{"x_min":75.09375,"x_max":687.203125,"ha":764,"o":"m 515 374 q 474 382 495 374 q 432 403 453 390 q 392 431 411 416 q 358 461 373 447 l 328 488 q 299 512 313 502 q 270 528 285 522 q 240 535 255 535 q 181 495 200 535 q 154 374 162 456 l 75 374 q 87 460 79 417 q 114 538 95 504 q 164 595 132 573 q 246 617 196 617 q 291 608 269 617 q 335 585 314 599 q 376 556 356 572 l 410 525 l 439 499 q 466 477 453 486 q 494 461 480 467 q 522 456 508 456 q 578 497 560 456 q 605 617 596 539 l 687 617 q 673 530 682 573 q 645 452 663 486 q 595 395 626 417 q 515 374 564 374 "},"-":{"x_min":34,"x_max":388,"ha":422,"o":"m 34 326 l 34 430 l 388 430 l 388 326 l 34 326 "},"Q":{"x_min":76,"x_max":932,"ha":1010,"o":"m 932 497 q 910 309 932 395 q 845 159 888 224 q 739 51 802 94 q 595 -5 676 9 q 618 -124 601 -76 q 660 -200 635 -172 q 721 -241 686 -229 q 797 -254 755 -254 l 819 -254 l 819 -319 l 760 -319 q 651 -304 705 -319 q 553 -254 598 -289 q 479 -159 509 -218 q 450 -10 450 -100 q 283 39 352 0 q 167 146 213 80 q 98 301 121 212 q 76 498 76 390 q 102 707 76 613 q 182 867 129 801 q 316 970 235 934 q 506 1007 397 1007 q 688 970 609 1007 q 821 867 767 934 q 904 706 876 800 q 932 497 932 613 m 227 497 q 241 313 227 394 q 290 175 256 231 q 376 90 323 120 q 504 61 428 61 q 633 90 580 61 q 718 175 686 120 q 766 313 751 231 q 781 497 781 394 q 766 681 781 600 q 718 818 751 762 q 633 902 686 873 q 506 932 581 932 q 377 902 430 932 q 290 818 323 873 q 241 681 256 762 q 227 497 227 600 "},"M":{"x_min":52,"x_max":1225,"ha":1277,"o":"m 863 0 l 863 58 l 867 58 q 907 61 889 58 q 937 73 924 64 q 957 99 949 82 q 964 145 964 117 l 964 887 l 653 0 l 579 0 l 264 884 l 264 157 q 270 105 264 125 q 290 75 277 85 q 321 61 303 64 q 362 58 339 58 l 366 58 l 366 0 l 52 0 l 52 58 l 69 58 q 112 61 91 58 q 147 73 132 64 q 172 101 163 83 q 181 150 181 120 l 181 838 q 172 887 181 869 q 147 916 163 906 q 112 929 132 926 q 69 933 91 933 l 52 933 l 52 991 l 362 991 l 644 197 l 923 991 l 1225 991 l 1225 933 l 1207 933 q 1164 929 1184 933 q 1128 915 1143 926 q 1104 885 1113 905 q 1096 833 1096 865 l 1096 157 q 1104 105 1096 125 q 1128 75 1113 85 q 1164 61 1143 64 q 1207 58 1184 58 l 1225 58 l 1225 0 l 863 0 "},"C":{"x_min":78,"x_max":790,"ha":836,"o":"m 514 1005 q 636 993 584 1005 q 721 960 687 981 q 773 910 756 939 q 790 849 790 882 q 780 808 790 826 q 755 778 771 790 q 718 758 739 765 q 671 752 696 752 q 662 816 671 784 q 635 873 654 848 q 586 915 616 899 q 511 931 556 931 q 380 902 434 931 q 293 818 327 873 q 244 682 259 762 q 229 496 229 601 q 244 326 229 403 q 295 194 260 249 q 383 108 329 138 q 511 78 436 78 q 599 87 561 78 q 667 113 637 97 q 718 151 696 130 q 758 195 740 172 q 776 175 769 188 q 784 141 784 162 q 766 87 784 115 q 712 37 748 60 q 621 0 677 15 q 491 -14 566 -14 q 312 22 389 -14 q 183 126 235 59 q 104 287 131 193 q 78 496 78 381 q 105 702 78 609 q 188 863 133 796 q 325 967 243 930 q 514 1005 407 1005 "},"[":{"x_min":136,"x_max":440.140625,"ha":489,"o":"m 136 -177 l 136 1055 l 440 1055 l 440 997 l 380 997 q 338 993 358 997 q 302 979 317 990 q 278 949 287 969 q 270 897 270 929 l 270 -19 q 278 -71 270 -51 q 302 -101 287 -91 q 338 -115 317 -112 q 380 -119 358 -119 l 440 -119 l 440 -177 l 136 -177 "},"L":{"x_min":52,"x_max":786.890625,"ha":849,"o":"m 52 0 l 52 58 l 69 58 q 112 61 92 58 q 148 75 133 64 q 172 105 163 85 q 181 157 181 125 l 181 833 q 172 885 181 865 q 148 915 163 905 q 112 929 133 926 q 69 933 92 933 l 52 933 l 52 991 l 448 991 l 448 933 l 430 933 q 387 929 407 933 q 352 916 367 926 q 327 887 336 906 q 319 838 319 869 l 319 69 l 587 69 q 639 80 617 69 q 675 109 661 91 q 696 149 689 127 q 707 194 704 172 l 720 298 l 786 298 l 786 0 l 52 0 "},"!":{"x_min":140,"x_max":311,"ha":453,"o":"m 140 85 q 146 129 140 112 q 164 158 153 147 q 192 174 176 169 q 225 179 207 179 q 258 174 242 179 q 285 158 273 169 q 304 129 297 147 q 311 85 311 112 q 304 40 311 58 q 285 11 297 22 q 258 -4 273 0 q 225 -9 242 -9 q 192 -4 207 -9 q 164 11 176 0 q 146 40 153 22 q 140 85 140 58 m 171 992 l 281 992 l 281 280 l 171 280 l 171 992 "}," ":{"x_min":0,"x_max":0,"ha":354},"{":{"x_min":68,"x_max":515,"ha":583,"o":"m 425 -178 q 340 -163 377 -178 q 278 -123 303 -149 q 241 -60 254 -97 q 229 22 229 -23 l 229 263 q 216 334 229 306 q 182 378 204 362 q 131 402 160 395 q 68 410 101 410 l 68 470 q 131 476 101 470 q 182 500 160 483 q 216 545 204 517 q 229 614 229 572 l 229 856 q 278 1003 229 951 q 425 1055 328 1055 l 515 1055 l 515 995 l 474 995 q 388 958 414 995 q 363 849 363 921 l 363 612 q 325 499 363 544 q 211 441 287 454 l 211 440 q 326 381 289 426 q 363 267 363 336 l 363 27 q 388 -80 363 -43 q 474 -118 414 -118 l 515 -118 l 515 -178 l 425 -178 "},"X":{"x_min":11,"x_max":888,"ha":899,"o":"m 634 892 q 628 912 634 905 q 613 925 622 920 q 590 931 603 929 q 560 933 576 933 l 557 933 l 557 991 l 855 991 l 855 933 l 843 933 q 806 928 823 933 q 775 911 790 923 q 743 880 759 899 q 708 833 727 861 l 510 542 l 761 131 q 817 74 791 91 q 870 58 844 58 l 888 58 l 888 0 l 520 0 l 520 58 l 527 58 q 608 104 608 58 q 606 119 608 111 q 600 136 604 126 q 586 161 595 146 l 563 199 l 429 420 l 278 192 q 266 172 272 184 q 254 149 260 161 q 246 124 249 137 q 243 101 243 112 q 264 67 243 77 q 331 58 286 58 l 335 58 l 335 0 l 11 0 l 11 58 l 19 58 q 62 63 44 58 q 96 79 80 68 q 127 109 112 91 q 161 155 142 127 l 388 487 l 163 859 q 108 916 139 899 q 46 933 77 933 l 29 933 l 29 991 l 398 991 l 398 933 l 393 933 q 355 929 370 933 q 331 921 339 926 q 319 908 322 916 q 316 892 316 901 q 316 878 316 885 q 321 862 317 871 q 330 841 324 853 q 348 810 337 829 l 471 608 l 600 808 q 624 852 615 831 q 634 892 634 873 "},"P":{"x_min":52,"x_max":769,"ha":822,"o":"m 52 0 l 52 58 l 69 58 q 112 61 92 58 q 148 75 133 64 q 172 105 163 85 q 181 157 181 125 l 181 838 q 172 888 181 869 q 147 916 163 906 q 112 930 132 927 q 69 933 91 933 l 52 933 l 52 991 l 434 991 q 582 971 519 991 q 687 913 646 951 q 748 822 728 875 q 769 701 769 768 q 750 582 769 639 q 687 481 731 525 q 574 412 644 438 q 404 386 504 386 l 319 386 l 319 151 q 327 101 319 120 q 352 73 336 83 q 387 61 367 64 q 430 58 407 58 l 475 58 l 475 0 l 52 0 m 319 452 l 391 452 q 496 465 452 452 q 568 507 540 478 q 609 583 596 537 q 622 695 622 630 q 610 797 622 754 q 574 868 599 840 q 508 911 549 897 q 411 925 468 925 l 319 925 l 319 452 "},"%":{"x_min":61,"x_max":1158,"ha":1219,"o":"m 508 697 q 494 571 508 628 q 452 473 480 514 q 382 410 424 432 q 284 388 340 388 q 183 410 225 388 q 114 473 141 432 q 73 571 86 514 q 61 697 61 628 q 73 824 61 767 q 114 921 86 880 q 184 983 141 961 q 285 1005 226 1005 q 383 983 341 1005 q 452 921 424 961 q 494 824 480 880 q 508 697 508 767 m 183 698 q 188 591 183 638 q 205 511 193 544 q 236 461 217 478 q 284 445 256 445 q 331 461 312 445 q 362 511 350 478 q 379 591 374 544 q 384 698 384 638 q 379 803 384 757 q 362 881 374 849 q 332 930 350 913 q 285 947 313 947 q 237 930 257 947 q 205 881 218 913 q 188 803 193 849 q 183 698 183 757 m 1158 295 q 1144 168 1158 225 q 1102 70 1130 111 q 1032 8 1074 30 q 935 -14 990 -14 q 834 8 876 -14 q 764 70 791 30 q 724 168 737 111 q 712 295 712 225 q 724 421 712 364 q 765 518 737 477 q 834 580 792 558 q 936 602 877 602 q 1033 580 992 602 q 1102 518 1075 558 q 1144 421 1130 477 q 1158 295 1158 364 m 834 295 q 839 188 834 235 q 856 108 844 141 q 887 58 868 75 q 934 42 907 42 q 982 58 962 42 q 1012 108 1001 75 q 1029 188 1024 141 q 1034 295 1034 235 q 1029 400 1034 354 q 1012 478 1024 446 q 982 527 1001 510 q 936 544 964 544 q 888 527 908 544 q 856 478 869 510 q 839 400 844 446 q 834 295 834 354 m 409 0 l 319 0 l 805 990 l 894 990 l 409 0 "},"#":{"x_min":54,"x_max":706,"ha":761,"o":"m 263 364 l 452 364 l 503 636 l 313 636 l 263 364 m 689 364 l 689 282 l 517 282 l 465 0 l 384 0 l 435 282 l 247 282 l 195 0 l 113 0 l 165 282 l 54 282 l 54 364 l 180 364 l 232 636 l 70 636 l 70 718 l 247 718 l 295 991 l 378 991 l 329 718 l 517 718 l 568 991 l 649 991 l 599 718 l 706 718 l 706 636 l 584 636 l 534 364 l 689 364 "},"_":{"x_min":-7,"x_max":631,"ha":624,"o":"m 631 -197 l -7 -197 l -7 -115 l 631 -115 l 631 -197 "},"+":{"x_min":88,"x_max":672,"ha":760,"o":"m 420 456 l 420 199 l 338 199 l 338 456 l 88 456 l 88 538 l 338 538 l 338 794 l 420 794 l 420 538 l 672 538 l 672 456 l 420 456 "},"‑":{"x_min":34,"x_max":388,"ha":422,"o":"m 34 326 l 34 430 l 388 430 l 388 326 l 34 326 "},")":{"x_min":44,"x_max":393,"ha":471,"o":"m 245 440 q 245 603 245 522 q 222 755 245 684 q 156 888 199 827 q 44 992 113 949 l 44 1054 q 203 963 137 1017 q 312 834 270 909 q 373 662 353 760 q 393 440 393 565 q 373 216 393 314 q 312 43 353 118 q 203 -85 270 -31 q 44 -177 137 -139 l 44 -113 q 156 -9 113 -70 q 222 123 199 51 q 245 276 245 195 q 245 440 245 357 "},"'":{"x_min":77.765625,"x_max":221.984375,"ha":300,"o":"m 77 991 l 221 991 l 180 665 l 118 665 l 77 991 "},"}":{"x_min":68,"x_max":515,"ha":583,"o":"m 68 -118 l 109 -118 q 195 -80 169 -118 q 221 27 221 -43 l 221 267 q 257 381 221 336 q 372 440 293 426 l 372 441 q 258 499 296 454 q 221 612 221 544 l 221 849 q 195 958 221 921 q 109 995 169 995 l 68 995 l 68 1055 l 158 1055 q 304 1003 254 1055 q 354 856 354 951 l 354 614 q 366 545 354 572 q 400 500 379 517 q 451 476 422 483 q 515 470 481 470 l 515 410 q 451 402 481 410 q 400 378 422 395 q 366 334 379 362 q 354 263 354 306 l 354 22 q 341 -60 354 -23 q 304 -123 328 -97 q 242 -163 279 -149 q 158 -178 206 -178 l 68 -178 l 68 -118 "}," ":{"x_min":0,"x_max":0,"ha":1048},"a":{"x_min":68,"x_max":708,"ha":766,"o":"m 200 202 q 226 103 200 136 q 310 71 253 71 q 385 84 351 71 q 442 122 418 97 q 478 183 465 147 q 491 262 491 218 l 491 374 l 403 374 q 307 361 346 374 q 244 328 268 349 q 210 275 220 306 q 200 202 200 243 m 365 688 q 301 676 325 688 q 263 645 277 665 q 245 597 250 625 q 241 537 241 569 q 154 556 184 537 q 124 624 124 576 q 144 685 124 660 q 196 726 163 710 q 274 749 230 742 q 369 757 319 757 q 478 744 432 757 q 556 703 525 731 q 603 629 587 675 q 619 517 619 583 l 619 157 q 623 109 619 128 q 638 79 628 90 q 664 62 648 67 q 703 58 681 58 l 708 58 l 708 0 l 523 0 l 502 119 l 491 119 q 449 65 469 89 q 406 23 429 40 q 351 -4 382 5 q 279 -14 321 -14 q 195 0 234 -14 q 128 40 156 12 q 83 110 99 68 q 68 210 68 152 q 145 375 68 321 q 378 430 222 430 l 491 430 l 491 514 q 487 584 491 552 q 469 639 483 616 q 431 675 456 662 q 365 688 406 688 "},"T":{"x_min":30.65625,"x_max":804.015625,"ha":835,"o":"m 485 157 q 493 105 485 125 q 517 75 502 85 q 553 61 532 64 q 595 58 573 58 l 627 58 l 627 0 l 204 0 l 204 58 l 235 58 q 278 61 257 58 q 313 73 298 64 q 338 101 329 83 q 347 150 347 120 l 347 922 l 216 922 q 166 912 186 922 q 133 888 146 903 q 114 851 120 872 q 105 808 107 831 l 97 748 l 30 748 l 30 991 l 804 991 l 804 748 l 736 748 l 729 808 q 720 851 727 831 q 701 888 713 872 q 668 912 688 903 q 617 922 647 922 l 485 922 l 485 157 "},"—":{"x_min":-7,"x_max":1367,"ha":1360,"o":"m 1367 332 l -7 332 l -7 414 l 1367 414 l 1367 332 "},"=":{"x_min":88,"x_max":672,"ha":760,"o":"m 672 400 l 672 318 l 88 318 l 88 400 l 672 400 m 672 673 l 672 591 l 88 591 l 88 673 l 672 673 "},"N":{"x_min":52,"x_max":1001,"ha":1040,"o":"m 774 0 l 264 800 l 264 157 q 273 105 264 125 q 297 75 282 85 q 332 61 312 64 q 376 58 353 58 l 394 58 l 394 0 l 52 0 l 52 58 l 69 58 q 112 61 92 58 q 148 75 133 64 q 172 105 163 85 q 181 157 181 125 l 181 838 q 172 887 181 869 q 147 916 163 906 q 112 929 132 926 q 69 933 92 933 l 52 933 l 52 991 l 301 991 l 788 223 l 788 838 q 779 887 788 869 q 754 916 770 906 q 719 929 739 926 q 676 933 699 933 l 659 933 l 659 991 l 1001 991 l 1001 933 l 983 933 q 939 929 960 933 q 903 915 919 926 q 879 885 888 905 q 871 833 871 865 l 871 0 l 774 0 "},"2":{"x_min":69,"x_max":658,"ha":761,"o":"m 627 773 q 611 678 627 725 q 567 584 596 632 q 495 483 537 535 q 399 370 453 431 l 169 111 l 484 111 q 534 119 514 111 q 567 142 554 128 q 586 175 579 157 q 598 214 593 194 l 603 239 l 658 239 l 658 0 l 69 0 l 69 101 l 295 369 q 387 484 350 433 q 446 580 423 535 q 479 668 469 625 q 489 759 489 712 q 480 831 489 799 q 455 887 472 864 q 412 923 438 910 q 350 936 386 936 q 274 919 303 936 q 229 873 246 902 q 206 807 212 845 q 201 729 201 770 q 154 733 176 729 q 117 747 133 737 q 92 775 101 758 q 83 819 83 792 q 100 893 83 859 q 151 953 117 927 q 234 992 184 978 q 350 1006 284 1006 q 466 989 414 1006 q 553 942 517 972 q 608 869 589 912 q 627 773 627 826 "},"j":{"x_min":-17,"x_max":283,"ha":408,"o":"m 275 744 l 275 -11 q 255 -166 275 -104 q 199 -265 235 -228 q 113 -318 163 -302 q 4 -334 64 -334 l -17 -334 l -17 -268 l -6 -268 q 58 -255 30 -268 q 106 -213 87 -242 q 136 -134 126 -183 q 147 -12 147 -85 l 147 591 q 138 640 147 621 q 113 669 129 658 q 78 682 98 679 q 35 686 57 686 l 31 686 l 31 744 l 275 744 m 128 969 q 133 1010 128 993 q 150 1036 139 1026 q 174 1050 160 1046 q 205 1055 189 1055 q 235 1050 221 1055 q 260 1036 249 1046 q 276 1010 270 1026 q 283 969 283 993 q 276 928 283 944 q 260 902 270 912 q 235 887 249 891 q 205 883 221 883 q 174 887 189 883 q 150 902 160 891 q 133 928 139 912 q 128 969 128 944 "},"Z":{"x_min":49,"x_max":745,"ha":805,"o":"m 727 934 l 214 69 l 558 69 q 609 78 588 69 q 642 102 629 87 q 661 139 655 118 q 671 182 668 159 l 677 242 l 745 242 l 745 0 l 49 0 l 49 55 l 559 922 l 263 922 q 213 912 233 922 q 180 888 193 903 q 161 851 167 872 q 151 808 154 831 l 145 748 l 78 748 l 78 991 l 727 991 l 727 934 "}," ":{"x_min":0,"x_max":0,"ha":174},"u":{"x_min":31.359375,"x_max":833,"ha":864,"o":"m 717 151 q 725 101 717 120 q 750 73 734 83 q 785 61 765 64 q 829 58 806 58 l 833 58 l 833 0 l 616 0 l 598 112 l 591 112 q 546 48 571 72 q 493 10 521 24 q 435 -8 465 -3 q 371 -14 404 -14 q 275 1 317 -14 q 205 50 233 17 q 161 135 176 83 q 147 258 147 186 l 147 591 q 138 640 147 621 q 113 669 129 658 q 78 682 98 679 q 35 686 57 686 l 31 686 l 31 744 l 275 744 l 275 264 q 281 184 275 219 q 305 124 288 148 q 349 87 321 100 q 417 75 376 75 q 495 91 462 75 q 548 137 527 107 q 579 207 569 166 q 589 299 589 249 l 589 585 q 580 638 589 618 q 556 668 571 658 q 520 682 541 679 q 477 686 500 686 l 473 686 l 473 744 l 717 744 l 717 151 "},"1":{"x_min":90.09375,"x_max":650,"ha":762,"o":"m 132 0 l 132 58 l 222 58 q 266 61 245 58 q 301 75 286 64 q 325 105 316 85 q 334 157 334 125 l 334 887 q 284 828 308 854 q 240 782 261 801 q 198 753 219 764 q 158 743 178 743 q 109 763 128 743 q 90 817 90 784 q 131 830 111 822 q 176 851 152 838 q 227 881 200 863 q 288 924 255 899 l 384 996 l 472 996 l 472 157 q 480 105 472 125 q 504 75 489 85 q 540 61 519 64 q 583 58 560 58 l 650 58 l 650 0 l 132 0 "}," ":{"x_min":0,"x_max":0,"ha":262},"k":{"x_min":25,"x_max":797.75,"ha":797,"o":"m 462 447 l 643 172 q 713 88 678 117 q 793 59 748 59 l 797 59 l 797 1 l 778 1 q 681 4 719 1 q 615 22 643 8 q 564 62 587 36 q 512 135 540 89 l 375 353 l 275 277 l 275 151 q 284 102 275 121 q 308 74 293 84 q 344 62 324 65 q 387 59 364 59 l 391 59 l 391 1 l 25 1 l 25 59 l 35 59 q 79 62 58 59 q 114 76 99 65 q 138 106 129 86 q 147 158 147 126 l 147 902 q 138 951 147 933 q 113 980 129 970 q 78 993 98 990 q 35 997 58 997 l 25 997 l 25 1055 l 273 1055 l 273 520 q 273 471 273 501 q 273 413 273 442 l 273 345 l 441 535 q 477 579 463 560 q 499 612 491 598 q 511 637 508 626 q 515 659 515 649 q 498 681 515 676 q 449 687 482 687 l 449 745 l 749 745 l 749 687 q 656 653 701 687 q 557 557 610 619 l 462 447 "}," ":{"x_min":0,"x_max":0,"ha":174}," ":{"x_min":0,"x_max":0,"ha":524},"€":{"x_min":56,"x_max":721,"ha":761,"o":"m 515 67 q 577 73 550 67 q 624 92 604 80 q 660 118 645 103 q 688 150 676 134 q 705 134 697 144 q 713 103 713 124 q 700 64 713 85 q 663 26 688 44 q 599 -2 637 9 q 507 -14 560 -14 q 385 6 443 -14 q 279 73 327 27 q 200 191 232 118 q 155 370 167 264 l 56 370 l 56 435 l 149 435 q 148 468 148 450 q 148 501 148 487 l 148 532 l 56 532 l 56 598 l 157 598 q 187 791 157 714 q 263 916 217 869 q 367 982 309 962 q 489 1002 425 1002 q 584 991 541 1002 q 657 962 626 981 q 704 918 687 943 q 721 862 721 892 q 690 794 721 814 q 603 775 660 775 q 596 836 603 807 q 574 887 589 865 q 536 921 560 908 q 478 934 512 934 q 409 918 442 934 q 350 864 376 902 q 305 760 323 825 q 287 598 287 695 l 569 598 l 569 532 l 281 532 l 281 498 l 281 466 q 282 435 281 447 l 515 435 l 515 370 l 287 370 q 315 239 296 296 q 364 144 335 182 q 432 86 393 106 q 515 67 470 67 "},"<":{"x_min":88,"x_max":672,"ha":760,"o":"m 88 471 l 88 520 l 672 841 l 672 748 l 214 495 l 672 245 l 672 152 l 88 471 "},"t":{"x_min":26,"x_max":448,"ha":479,"o":"m 360 59 q 405 61 385 59 q 448 68 426 64 l 448 7 q 425 0 439 3 q 395 -7 411 -4 q 360 -12 378 -10 q 326 -14 342 -14 q 237 -2 274 -14 q 176 33 200 8 q 140 99 152 58 q 129 200 129 140 l 129 664 l 26 664 l 26 720 q 79 730 50 720 q 131 764 109 740 q 169 825 155 790 q 194 915 183 861 l 257 915 l 257 744 l 435 744 l 435 665 l 257 665 l 257 196 q 285 92 257 125 q 360 59 313 59 "},"W":{"x_min":12,"x_max":1413,"ha":1425,"o":"m 784 982 l 954 380 q 988 247 973 311 q 1013 136 1003 184 q 1036 241 1023 186 q 1067 364 1049 297 l 1187 792 l 1192 810 q 1196 831 1194 821 l 1200 850 q 1202 865 1202 859 q 1179 917 1202 901 q 1112 933 1157 933 l 1081 933 l 1081 991 l 1413 991 l 1413 933 l 1387 933 q 1352 928 1367 933 q 1325 913 1337 924 q 1303 880 1313 901 q 1283 825 1293 859 l 1053 0 l 931 0 l 709 777 l 501 0 l 375 0 l 126 859 q 111 895 119 881 q 91 918 103 909 q 65 929 80 926 q 29 933 49 933 l 12 933 l 12 991 l 387 991 l 387 933 l 355 933 q 294 917 314 933 q 274 866 274 901 q 277 842 274 855 l 284 815 l 409 370 l 442 246 q 468 136 457 186 q 492 254 478 190 q 523 385 505 318 l 686 982 l 784 982 "},"v":{"x_min":5,"x_max":784,"ha":788,"o":"m 5 686 l 5 744 l 345 744 l 345 686 l 327 686 q 266 669 286 686 q 246 618 246 653 q 248 595 246 607 q 256 568 251 583 l 348 305 q 366 252 357 281 l 384 193 q 399 140 392 165 q 408 97 406 114 l 413 97 q 424 134 416 111 l 442 181 l 462 235 l 481 287 l 579 557 q 589 590 586 574 q 592 617 592 606 q 569 669 592 653 q 502 686 547 686 l 492 686 l 492 744 l 784 744 l 784 686 l 767 686 q 733 681 747 686 q 708 664 719 677 q 686 631 696 652 q 663 577 676 610 l 448 0 l 324 0 l 105 612 q 89 648 97 633 q 69 670 80 662 q 43 682 58 679 q 8 686 28 686 l 5 686 "},">":{"x_min":88,"x_max":672,"ha":760,"o":"m 88 152 l 88 245 l 545 495 l 88 748 l 88 841 l 672 520 l 672 471 l 88 152 "},"s":{"x_min":61.1875,"x_max":554,"ha":614,"o":"m 285 -14 q 193 -4 234 -14 q 122 22 151 4 q 77 69 93 41 q 61 133 61 96 q 70 179 61 161 q 91 209 78 198 q 119 224 104 220 q 146 229 134 229 q 153 160 146 192 q 178 104 160 128 q 223 65 195 79 q 293 52 252 52 q 358 61 330 52 q 405 86 386 70 q 434 127 424 103 q 444 178 444 150 q 436 222 444 204 q 409 257 428 241 q 357 291 390 274 q 275 329 325 308 q 184 375 223 353 q 120 423 145 397 q 82 481 95 449 q 70 560 70 514 q 88 644 70 607 q 140 705 106 680 q 221 743 174 730 q 326 756 268 756 q 412 745 374 756 q 474 718 449 735 q 512 677 499 701 q 525 628 525 654 q 499 567 525 590 q 427 545 474 545 q 398 653 427 614 q 309 692 370 692 q 250 683 275 692 q 210 660 225 675 q 187 625 194 645 q 180 580 180 605 q 189 535 180 554 q 218 499 198 515 q 271 468 239 483 q 349 434 303 452 q 441 388 403 411 q 505 339 480 366 q 542 280 530 313 q 554 203 554 246 q 534 108 554 149 q 480 40 515 68 q 395 0 445 13 q 285 -14 346 -14 "},"B":{"x_min":52,"x_max":807,"ha":890,"o":"m 767 743 q 753 661 767 696 q 718 599 740 625 q 664 555 695 572 q 598 524 633 537 l 598 519 q 682 491 643 511 q 748 440 721 472 q 791 365 776 408 q 807 267 807 322 q 720 66 807 133 q 457 0 634 0 l 52 0 l 52 58 l 69 58 q 112 61 92 58 q 148 75 133 64 q 172 105 163 85 q 181 157 181 125 l 181 838 q 172 887 181 869 q 147 916 163 906 q 112 929 132 926 q 69 932 91 932 l 52 932 l 52 991 l 417 991 q 680 931 594 991 q 767 743 767 871 m 319 69 l 450 69 q 548 79 508 69 q 613 114 588 90 q 649 177 638 138 q 661 271 661 216 q 651 366 661 326 q 616 432 641 406 q 552 472 592 459 q 453 485 513 485 l 319 485 l 319 69 m 319 554 l 413 554 q 512 564 472 554 q 576 598 552 575 q 610 657 600 621 q 621 743 621 692 q 609 828 621 793 q 573 883 598 862 q 507 913 548 904 q 409 922 467 922 l 319 922 l 319 554 "},"…":{"x_min":109,"x_max":1058,"ha":1167,"o":"m 887 85 q 893 129 887 112 q 911 158 900 147 q 939 174 923 169 q 972 179 954 179 q 1005 174 989 179 q 1032 158 1020 169 q 1051 129 1044 147 q 1058 85 1058 112 q 1051 40 1058 58 q 1032 11 1044 22 q 1005 -4 1020 0 q 972 -9 989 -9 q 939 -4 954 -9 q 911 11 923 0 q 893 40 900 22 q 887 85 887 58 m 499 85 q 505 129 499 112 q 523 158 512 147 q 551 174 535 169 q 584 179 566 179 q 617 174 601 179 q 644 158 632 169 q 663 129 656 147 q 670 85 670 112 q 663 40 670 58 q 644 11 656 22 q 617 -4 632 0 q 584 -9 601 -9 q 551 -4 566 -9 q 523 11 535 0 q 505 40 512 22 q 499 85 499 58 m 109 85 q 115 129 109 112 q 133 158 122 147 q 161 174 145 169 q 194 179 176 179 q 227 174 211 179 q 254 158 242 169 q 273 129 266 147 q 280 85 280 112 q 273 40 280 58 q 254 11 266 22 q 227 -4 242 0 q 194 -9 211 -9 q 161 -4 176 -9 q 133 11 145 0 q 115 40 122 22 q 109 85 109 58 "},"?":{"x_min":58,"x_max":610,"ha":679,"o":"m 217 85 q 223 129 217 112 q 241 158 230 147 q 269 174 253 169 q 302 179 284 179 q 335 174 319 179 q 362 158 350 169 q 381 129 374 147 q 388 85 388 112 q 381 40 388 58 q 362 11 374 22 q 335 -4 350 0 q 302 -9 319 -9 q 269 -4 284 -9 q 241 11 253 0 q 223 40 230 22 q 217 85 217 58 m 346 280 l 263 280 l 263 491 q 362 547 322 515 q 426 617 402 579 q 460 696 450 655 q 471 778 471 737 q 462 844 471 814 q 435 894 453 873 q 389 926 417 914 q 322 938 361 938 q 250 923 279 938 q 203 885 221 909 q 177 828 185 860 q 170 760 170 796 q 125 765 145 760 q 89 782 104 771 q 66 810 75 793 q 58 850 58 827 q 72 911 58 883 q 119 961 87 940 q 198 994 150 982 q 312 1006 246 1006 q 430 989 376 1006 q 525 939 485 972 q 587 861 564 907 q 610 754 610 814 q 592 650 610 697 q 540 565 574 604 q 457 495 506 526 q 346 436 408 463 l 346 280 "},"H":{"x_min":52,"x_max":1028,"ha":1080,"o":"m 632 0 l 632 58 l 649 58 q 693 61 673 58 q 728 75 713 64 q 752 105 743 85 q 761 157 761 125 l 761 484 l 319 484 l 319 157 q 327 105 319 125 q 351 75 336 85 q 387 61 366 64 q 430 58 407 58 l 448 58 l 448 0 l 52 0 l 52 58 l 69 58 q 112 61 92 58 q 148 75 133 64 q 172 105 163 85 q 181 157 181 125 l 181 838 q 172 887 181 869 q 147 916 163 906 q 112 929 132 926 q 69 933 91 933 l 52 933 l 52 991 l 448 991 l 448 933 l 430 933 q 387 929 407 933 q 351 915 366 926 q 327 885 336 905 q 319 833 319 865 l 319 553 l 761 553 l 761 833 q 752 885 761 865 q 728 915 743 905 q 693 929 713 926 q 649 933 673 933 l 632 933 l 632 991 l 1028 991 l 1028 933 l 1010 933 q 967 929 987 933 q 931 915 946 926 q 907 885 916 905 q 899 833 899 865 l 899 150 q 907 101 899 120 q 932 73 916 83 q 967 61 947 64 q 1010 58 988 58 l 1028 58 l 1028 0 l 632 0 "},"c":{"x_min":75,"x_max":617,"ha":670,"o":"m 385 -14 q 260 7 317 -14 q 162 74 203 28 q 97 192 120 120 q 75 367 75 265 q 97 553 75 478 q 161 673 120 628 q 257 738 202 719 q 377 757 313 757 q 462 748 420 757 q 538 722 504 740 q 593 678 572 704 q 615 615 615 651 q 584 547 615 567 q 494 528 554 528 q 488 589 494 560 q 470 640 483 618 q 435 675 457 662 q 378 688 412 688 q 307 673 339 688 q 253 621 275 658 q 218 523 230 585 q 206 368 206 461 q 254 148 206 221 q 412 76 302 76 q 522 103 475 76 q 593 172 570 130 q 610 151 603 164 q 617 118 617 137 q 602 71 617 95 q 558 28 587 47 q 486 -2 529 9 q 385 -14 443 -14 "},"&":{"x_min":49,"x_max":997,"ha":1010,"o":"m 779 -1 l 667 121 q 613 68 642 92 q 547 25 583 43 q 468 -3 511 6 q 372 -14 424 -14 q 230 7 290 -14 q 129 66 169 28 q 68 158 88 104 q 49 277 49 211 q 64 380 49 336 q 108 457 80 424 q 176 515 136 490 q 266 561 217 540 q 220 621 240 592 q 188 678 201 650 q 168 737 175 707 q 162 800 162 767 q 176 884 162 847 q 222 948 191 921 q 302 990 253 975 q 419 1005 351 1005 q 530 989 484 1005 q 605 946 576 973 q 647 883 634 919 q 660 807 660 847 q 647 728 660 762 q 607 664 634 693 q 535 609 579 635 q 429 556 492 583 l 677 288 q 693 351 687 319 q 703 415 699 384 q 707 475 707 445 q 707 530 707 504 l 707 584 l 954 584 l 954 526 l 941 526 q 896 523 918 526 q 855 510 874 520 q 821 482 836 500 q 798 431 806 463 q 770 334 786 386 q 731 230 754 282 l 858 92 q 878 74 868 81 q 903 63 889 67 q 937 59 918 59 q 985 59 957 59 l 997 59 l 997 -1 l 779 -1 m 385 63 q 459 71 425 63 q 522 94 493 79 q 574 130 550 109 q 618 175 598 151 l 316 504 q 260 465 285 487 q 218 416 235 444 q 191 352 200 388 q 182 272 182 317 q 196 182 182 221 q 238 116 211 143 q 302 76 265 90 q 385 63 339 63 m 540 806 q 533 858 540 834 q 511 899 526 882 q 472 926 496 916 q 413 937 448 937 q 320 901 353 937 q 288 805 288 865 q 293 755 288 778 q 310 709 298 732 q 339 662 321 687 q 383 609 357 638 q 453 646 423 626 q 502 689 482 666 q 530 741 521 712 q 540 806 540 770 "},"I":{"x_min":52,"x_max":448,"ha":500,"o":"m 52 0 l 52 58 l 69 58 q 112 61 92 58 q 148 75 133 64 q 172 105 163 85 q 181 157 181 125 l 181 833 q 172 885 181 865 q 148 915 163 905 q 112 929 133 926 q 69 933 92 933 l 52 933 l 52 991 l 448 991 l 448 933 l 430 933 q 387 929 407 933 q 351 915 366 926 q 327 885 336 905 q 319 833 319 865 l 319 157 q 327 105 319 125 q 351 75 336 85 q 387 61 366 64 q 430 58 407 58 l 448 58 l 448 0 l 52 0 "},"•":{"x_min":66,"x_max":426,"ha":492,"o":"m 66 494 q 79 590 66 551 q 117 652 93 628 q 174 685 141 675 q 246 696 207 696 q 316 685 283 696 q 373 652 348 675 q 412 590 398 628 q 426 494 426 551 q 412 399 426 437 q 373 337 398 360 q 316 303 348 313 q 246 293 283 293 q 174 303 207 293 q 117 337 141 313 q 79 399 93 360 q 66 494 66 437 "},"G":{"x_min":78,"x_max":946,"ha":972,"o":"m 545 -14 q 339 22 427 -14 q 193 126 251 59 q 106 287 135 193 q 78 496 78 381 q 108 702 78 609 q 198 863 138 796 q 347 967 258 930 q 554 1005 436 1005 q 686 993 630 1005 q 780 960 742 981 q 836 910 817 939 q 855 849 855 882 q 845 808 855 826 q 818 778 835 790 q 778 758 801 765 q 729 752 755 752 q 719 816 729 784 q 689 873 710 848 q 633 915 667 899 q 548 931 598 931 q 401 902 462 931 q 302 818 340 873 q 246 681 263 762 q 229 496 229 601 q 246 312 229 392 q 305 176 264 231 q 410 93 345 121 q 567 65 474 65 q 643 69 606 65 q 709 81 680 73 l 709 305 q 700 354 709 336 q 675 383 691 373 q 640 396 660 393 q 597 400 619 400 l 592 400 l 592 458 l 946 458 l 946 400 l 940 400 q 904 396 921 400 q 874 382 886 393 q 854 352 861 372 q 847 299 847 332 l 847 50 q 706 1 778 17 q 545 -14 633 -14 "},"(":{"x_min":78,"x_max":428,"ha":472,"o":"m 226 440 q 226 276 226 357 q 248 123 226 195 q 314 -9 270 51 q 428 -113 358 -70 l 428 -177 q 267 -85 334 -139 q 158 43 201 -31 q 97 216 116 118 q 78 440 78 314 q 97 662 78 565 q 158 834 116 760 q 267 963 201 909 q 428 1054 334 1017 l 428 992 q 314 888 358 949 q 248 755 270 827 q 226 603 226 684 q 226 440 226 522 "},"`":{"x_min":261,"x_max":526,"ha":786,"o":"m 526 841 l 474 841 q 414 888 446 859 q 352 945 382 916 q 298 1003 322 975 q 261 1048 273 1030 l 261 1063 l 406 1063 q 431 1012 417 1039 q 462 957 446 985 q 494 904 478 930 q 526 859 511 878 l 526 841 "},"U":{"x_min":21,"x_max":956,"ha":976,"o":"m 492 -14 q 348 3 412 -14 q 240 58 284 20 q 173 155 196 96 q 150 299 150 214 l 150 838 q 141 887 150 869 q 116 916 132 906 q 81 929 101 926 q 38 933 60 933 l 21 933 l 21 991 l 417 991 l 417 933 l 399 933 q 356 929 376 933 q 320 915 335 926 q 296 885 305 905 q 288 833 288 865 l 288 291 q 304 188 288 231 q 352 119 321 146 q 423 81 382 93 q 514 69 465 69 q 616 85 573 69 q 687 130 659 101 q 729 198 715 159 q 743 286 743 238 l 743 838 q 734 887 743 869 q 709 916 725 906 q 674 929 694 926 q 631 933 653 933 l 614 933 l 614 991 l 956 991 l 956 933 l 938 933 q 894 929 915 933 q 859 915 874 926 q 835 885 844 905 q 826 833 826 865 l 826 283 q 804 158 826 214 q 740 65 782 103 q 636 6 698 26 q 492 -14 573 -14 "},"F":{"x_min":52,"x_max":741.6875,"ha":804,"o":"m 319 922 l 319 521 l 647 521 l 647 453 l 319 453 l 319 157 q 327 105 319 125 q 351 75 336 85 q 387 61 366 64 q 430 58 407 58 l 475 58 l 475 0 l 52 0 l 52 58 l 69 58 q 112 61 91 58 q 147 73 132 64 q 172 101 163 83 q 181 150 181 120 l 181 838 q 172 887 181 869 q 147 916 163 906 q 112 929 132 926 q 69 932 91 932 l 52 932 l 52 991 l 741 991 l 741 748 l 674 748 l 667 808 q 657 852 665 831 q 634 888 649 873 q 596 912 619 903 q 542 922 574 922 l 319 922 "},"r":{"x_min":45,"x_max":621,"ha":642,"o":"m 438 0 l 45 0 l 45 58 l 48 58 q 92 61 72 58 q 127 75 112 64 q 151 105 142 85 q 160 157 160 125 l 160 591 q 151 640 160 621 q 126 669 142 658 q 91 682 111 679 q 48 686 71 686 l 45 686 l 45 744 l 254 744 l 280 606 l 286 606 q 313 665 300 637 q 348 713 327 692 q 398 746 368 734 q 473 758 428 758 q 584 731 548 758 q 621 656 621 705 q 614 616 621 635 q 591 585 607 598 q 552 564 576 571 q 494 557 528 557 q 478 640 494 615 q 422 666 462 666 q 376 651 396 666 q 341 612 356 636 q 316 557 326 588 q 299 493 306 526 q 290 428 293 460 q 288 369 288 395 l 288 150 q 297 101 288 120 q 321 73 306 83 q 356 61 336 64 q 400 58 377 58 l 438 58 l 438 0 "},":":{"x_min":110,"x_max":281,"ha":390,"o":"m 110 85 q 116 129 110 112 q 134 158 123 147 q 162 174 146 169 q 195 179 177 179 q 228 174 212 179 q 255 158 243 169 q 274 129 267 147 q 281 85 281 112 q 274 40 281 58 q 255 11 267 22 q 228 -4 243 0 q 195 -9 212 -9 q 162 -4 177 -9 q 134 11 146 0 q 116 40 123 22 q 110 85 110 58 m 110 657 q 116 702 110 684 q 134 731 123 720 q 162 747 146 742 q 195 752 177 752 q 228 747 212 752 q 255 731 243 742 q 274 702 267 720 q 281 657 281 684 q 274 613 281 631 q 255 583 267 594 q 228 567 243 572 q 195 563 212 563 q 162 567 177 563 q 134 583 146 572 q 116 613 123 594 q 110 657 110 631 "},"x":{"x_min":7,"x_max":781,"ha":788,"o":"m 523 645 q 501 678 523 670 q 449 686 480 686 l 446 686 l 446 744 l 744 744 l 744 686 l 732 686 q 695 682 712 686 q 663 669 679 679 q 631 642 648 660 q 594 597 614 624 l 453 406 l 654 131 q 711 74 684 91 q 763 58 738 58 l 781 58 l 781 0 l 429 0 l 429 58 l 435 58 q 517 104 517 58 q 515 119 517 111 q 507 137 513 127 q 491 163 501 148 q 465 199 481 178 l 374 324 l 279 188 q 266 169 273 180 q 255 147 260 159 q 246 124 249 135 q 243 101 243 112 q 262 67 243 77 q 327 58 281 58 l 331 58 l 331 0 l 7 0 l 7 58 l 19 58 q 62 62 44 58 q 98 76 81 66 q 131 103 114 86 q 167 146 147 121 l 339 373 l 167 612 q 109 667 138 648 q 50 686 81 686 l 33 686 l 33 744 l 379 744 l 379 686 l 374 686 q 336 683 351 686 q 312 674 320 680 q 300 661 303 668 q 297 645 297 653 q 305 617 297 631 q 328 581 313 603 l 418 456 l 488 560 q 513 605 504 584 q 523 645 523 626 "},"*":{"x_min":55.828125,"x_max":616.75,"ha":681,"o":"m 55 859 l 103 969 l 313 834 l 277 1055 l 396 1055 l 358 836 l 568 966 l 616 858 l 386 790 l 616 722 l 568 615 l 358 744 l 396 525 l 277 525 l 311 744 l 103 612 l 55 720 l 284 790 l 55 859 "},"V":{"x_min":0,"x_max":919,"ha":919,"o":"m 407 0 l 114 859 q 98 895 106 881 q 78 918 89 909 q 52 929 67 926 q 17 933 37 933 l 0 933 l 0 991 l 374 991 l 374 933 l 342 933 q 281 917 301 933 q 261 866 261 901 q 263 842 261 855 q 272 815 266 830 l 421 364 q 457 244 442 302 q 483 136 471 186 q 508 242 493 186 q 545 364 523 299 l 696 805 q 704 838 701 822 q 708 865 708 853 q 685 917 708 901 q 618 933 663 933 l 587 933 l 587 991 l 919 991 l 919 933 l 893 933 q 858 928 873 933 q 832 912 844 924 q 811 880 821 901 q 789 825 801 859 l 507 0 l 407 0 "},"h":{"x_min":25,"x_max":827,"ha":865,"o":"m 391 59 l 391 1 l 25 1 l 25 59 l 35 59 q 79 62 58 59 q 114 76 99 65 q 138 106 129 86 q 147 158 147 126 l 147 902 q 138 951 147 933 q 113 980 129 970 q 78 993 98 990 q 35 997 58 997 l 25 997 l 25 1055 l 273 1055 l 273 749 q 273 710 273 730 q 273 671 273 689 l 273 632 l 276 632 q 477 758 337 758 q 579 742 534 758 q 655 693 624 726 q 702 609 686 660 q 718 486 718 558 l 718 158 q 725 106 718 126 q 747 76 733 86 q 781 62 761 65 q 823 59 800 59 l 827 59 l 827 1 l 590 1 l 590 480 q 582 560 590 525 q 556 619 574 595 q 510 656 538 644 q 440 669 481 669 q 367 653 397 669 q 315 607 336 637 q 285 536 295 578 q 275 444 275 495 l 275 151 q 284 102 275 121 q 308 74 293 84 q 344 62 324 65 q 387 59 364 59 l 391 59 "},"0":{"x_min":61,"x_max":700,"ha":761,"o":"m 700 496 q 680 287 700 381 q 620 126 660 193 q 521 22 580 59 q 380 -14 461 -14 q 236 22 297 -14 q 137 126 176 59 q 79 288 98 193 q 61 497 61 382 q 79 706 61 613 q 137 866 98 800 q 236 969 176 933 q 382 1005 297 1005 q 521 969 461 1005 q 620 866 580 933 q 680 706 660 800 q 700 496 700 612 m 203 496 q 212 312 203 393 q 242 175 221 231 q 297 90 263 119 q 380 61 331 61 q 464 90 430 61 q 519 175 498 119 q 549 312 540 231 q 558 496 558 393 q 549 680 558 599 q 519 816 540 761 q 464 901 498 872 q 382 930 431 930 q 298 901 332 930 q 242 816 264 872 q 212 680 221 761 q 203 496 203 599 "},".":{"x_min":109,"x_max":280,"ha":389,"o":"m 109 85 q 115 129 109 112 q 133 158 122 147 q 161 174 145 169 q 194 179 176 179 q 227 174 211 179 q 254 158 242 169 q 273 129 266 147 q 280 85 280 112 q 273 40 280 58 q 254 11 266 22 q 227 -4 242 0 q 194 -9 211 -9 q 161 -4 176 -9 q 133 11 145 0 q 115 40 122 22 q 109 85 109 58 "},"”":{"x_min":41,"x_max":537,"ha":613,"o":"m 264 870 q 252 784 264 826 q 213 708 240 743 q 144 644 186 673 q 41 598 102 616 l 41 656 q 139 709 108 678 q 171 781 171 740 q 163 804 171 795 q 145 820 156 813 q 121 834 133 827 q 96 850 108 841 q 78 874 85 860 q 71 908 71 887 q 96 969 71 948 q 159 991 122 991 q 199 983 181 991 q 232 960 218 975 q 255 922 247 944 q 264 870 264 899 m 537 870 q 525 784 537 826 q 486 708 513 743 q 417 644 459 673 q 314 598 375 616 l 314 656 q 411 709 380 678 q 443 781 443 740 q 435 804 443 795 q 417 820 428 813 q 393 834 406 827 q 369 850 380 841 q 351 874 358 860 q 344 908 344 887 q 369 969 344 948 q 432 991 394 991 q 472 983 453 991 q 505 960 491 975 q 528 922 519 944 q 537 870 537 899 "},"@":{"x_min":88,"x_max":1181,"ha":1253,"o":"m 1181 545 q 1157 363 1181 444 q 1094 225 1133 282 q 1008 138 1056 169 q 914 108 961 108 q 813 141 853 108 q 754 233 773 174 l 746 233 q 715 183 732 206 q 675 143 697 160 q 625 117 653 126 q 563 108 598 108 q 484 122 522 108 q 419 165 447 136 q 373 239 390 194 q 357 345 357 284 q 365 425 357 382 q 391 512 373 469 q 436 595 408 555 q 502 666 463 636 q 591 716 540 697 q 703 735 641 735 q 779 722 747 735 q 831 693 810 710 l 885 722 l 918 722 l 849 368 q 844 335 847 352 q 841 306 842 322 q 839 275 839 289 q 846 233 839 251 q 865 203 853 215 q 891 186 876 191 q 922 181 906 181 q 983 205 952 181 q 1040 276 1015 229 q 1081 392 1065 323 q 1098 548 1098 460 q 1069 709 1098 639 q 990 825 1040 778 q 868 896 939 872 q 712 921 797 921 q 582 902 646 921 q 461 846 518 883 q 355 755 403 809 q 271 634 306 702 q 215 483 235 566 q 196 306 196 401 q 228 108 196 190 q 316 -24 261 27 q 445 -100 372 -76 q 601 -124 518 -124 q 706 -114 657 -124 q 800 -88 756 -104 q 880 -51 843 -71 q 946 -8 917 -30 l 978 -58 q 902 -109 944 -84 q 812 -153 860 -134 q 707 -185 763 -173 q 587 -197 650 -197 q 386 -166 478 -197 q 228 -72 294 -135 q 125 83 162 -10 q 88 302 88 176 q 108 490 88 401 q 169 656 129 579 q 265 794 208 732 q 391 900 321 857 q 544 968 462 944 q 720 992 627 992 q 921 957 834 992 q 1065 862 1007 922 q 1152 721 1123 802 q 1181 545 1181 639 m 483 325 q 511 216 483 252 q 586 181 540 181 q 646 196 621 181 q 689 235 671 211 q 716 291 706 260 q 733 354 727 322 l 785 636 q 755 667 776 656 q 708 678 733 678 q 635 660 668 678 q 577 612 602 642 q 534 546 552 583 q 505 469 516 508 q 488 392 493 429 q 483 325 483 355 "},"f":{"x_min":37,"x_max":598,"ha":503,"o":"m 458 58 l 458 0 l 37 0 l 37 58 l 54 58 q 98 61 77 58 q 133 75 118 64 q 157 105 148 85 q 166 157 166 125 l 166 679 l 42 679 l 42 745 l 166 745 l 166 813 q 182 923 166 875 q 230 1003 199 970 q 306 1052 261 1035 q 406 1069 351 1069 q 496 1061 460 1069 q 555 1041 533 1054 q 588 1011 578 1028 q 598 972 598 993 q 589 938 598 953 q 566 914 581 923 q 531 899 551 904 q 486 894 510 894 q 481 934 486 914 q 467 970 477 954 q 439 995 456 986 q 396 1005 422 1005 q 347 993 367 1005 q 315 959 327 982 q 298 903 303 936 q 294 826 294 870 l 294 745 l 486 745 l 486 679 l 294 679 l 294 157 q 303 105 294 125 q 327 75 312 85 q 362 61 342 64 q 406 58 383 58 l 458 58 "},";":{"x_min":41,"x_max":264,"ha":340,"o":"m 264 58 q 252 -27 264 14 q 213 -103 240 -68 q 144 -167 186 -138 q 41 -213 102 -195 l 41 -155 q 139 -102 108 -133 q 171 -30 171 -71 q 163 -7 171 -16 q 145 8 156 1 q 121 22 133 15 q 97 38 108 29 q 78 62 85 48 q 71 96 71 75 q 96 157 71 136 q 159 179 122 179 q 199 171 181 179 q 232 148 218 163 q 255 110 247 132 q 264 58 264 87 m 87 656 q 93 701 87 683 q 111 730 100 719 q 139 746 123 741 q 172 751 154 751 q 205 746 189 751 q 232 730 220 741 q 251 701 244 719 q 258 656 258 683 q 251 612 258 630 q 232 582 244 593 q 205 566 220 571 q 172 562 189 562 q 139 566 154 562 q 111 582 123 571 q 93 612 100 593 q 87 656 87 630 "},"“":{"x_min":76,"x_max":571,"ha":612,"o":"m 76 720 q 87 806 76 764 q 126 882 99 847 q 196 946 153 917 q 299 992 238 974 l 299 934 q 201 881 232 912 q 170 809 170 850 q 177 786 170 795 q 195 770 184 777 q 219 756 206 763 q 243 740 232 749 q 261 716 254 730 q 269 682 269 703 q 243 621 269 642 q 180 600 217 600 q 140 607 159 600 q 107 630 121 615 q 84 668 92 646 q 76 720 76 691 m 348 720 q 359 806 348 764 q 398 882 371 847 q 468 946 425 917 q 571 992 510 974 l 571 934 q 473 881 504 912 q 442 809 442 850 q 449 786 442 795 q 467 770 456 777 q 491 756 478 763 q 515 740 504 749 q 533 716 526 730 q 541 682 541 703 q 515 621 541 642 q 452 600 490 600 q 413 607 432 600 q 379 630 393 615 q 356 668 365 646 q 348 720 348 691 "}," ":{"x_min":0,"x_max":0,"ha":262},"i":{"x_min":31,"x_max":418,"ha":435,"o":"m 48 58 q 91 61 71 58 q 126 73 111 64 q 151 101 142 83 q 160 150 160 120 l 160 591 q 151 640 160 621 q 126 669 142 658 q 91 682 111 679 q 48 686 71 686 l 44 686 l 44 744 l 288 744 l 288 157 q 297 105 288 125 q 321 75 306 85 q 356 61 336 64 q 400 58 377 58 l 418 58 l 418 0 l 31 0 l 31 58 l 48 58 m 141 969 q 146 1010 141 993 q 163 1036 152 1026 q 188 1050 174 1046 q 218 1055 202 1055 q 248 1050 234 1055 q 273 1036 262 1046 q 289 1010 283 1026 q 296 969 296 993 q 289 928 296 944 q 273 902 283 912 q 248 887 262 891 q 218 883 234 883 q 188 887 202 883 q 163 902 174 891 q 146 928 152 912 q 141 969 141 944 "},"6":{"x_min":83,"x_max":691,"ha":761,"o":"m 436 938 q 280 835 333 938 q 226 529 226 732 q 260 557 240 543 q 304 580 280 570 q 356 595 328 589 q 418 602 384 602 q 531 582 480 602 q 616 526 581 562 q 671 436 652 489 q 691 317 691 383 q 671 183 691 244 q 614 78 651 122 q 522 10 576 34 q 398 -14 468 -14 q 273 14 330 -14 q 173 105 215 43 q 106 264 130 167 q 83 499 83 362 q 92 628 83 565 q 121 747 102 691 q 170 851 140 803 q 238 932 199 898 q 328 986 278 967 q 438 1005 378 1005 q 537 992 495 1005 q 607 960 579 980 q 649 913 635 939 q 663 859 663 887 q 636 797 663 819 q 558 776 609 776 q 551 839 558 809 q 530 890 545 868 q 492 925 515 912 q 436 938 470 938 m 391 531 q 340 523 364 531 q 294 505 315 516 q 254 479 272 494 q 223 451 236 465 q 235 272 223 346 q 272 152 248 198 q 328 83 295 105 q 402 62 361 62 q 513 119 475 62 q 552 303 552 177 q 510 476 552 422 q 391 531 469 531 "},"A":{"x_min":0,"x_max":960,"ha":960,"o":"m 275 331 l 223 185 q 214 153 217 169 q 211 125 211 137 q 233 74 211 90 q 300 58 255 58 l 332 58 l 332 0 l 0 0 l 0 58 l 25 58 q 59 62 45 58 q 85 79 73 66 q 106 112 96 91 q 129 166 117 133 l 431 990 l 538 990 l 845 131 q 862 95 853 110 q 881 73 870 81 q 907 61 892 64 q 942 58 922 58 l 960 58 l 960 0 l 586 0 l 586 58 l 617 58 q 699 124 699 58 q 696 148 699 135 q 687 175 693 160 l 633 331 l 275 331 m 524 643 l 485 758 q 456 863 467 813 q 445 814 451 838 q 431 767 438 791 q 414 715 424 742 l 393 656 l 300 401 l 608 401 l 524 643 "},"‘":{"x_min":76,"x_max":299,"ha":340,"o":"m 76 720 q 87 806 76 764 q 126 882 99 847 q 196 946 153 917 q 299 992 238 974 l 299 934 q 201 881 232 912 q 170 809 170 850 q 177 786 170 795 q 195 770 184 777 q 219 756 206 763 q 243 740 232 749 q 261 716 254 730 q 269 682 269 703 q 243 621 269 642 q 180 600 217 600 q 140 607 159 600 q 107 630 121 615 q 84 668 92 646 q 76 720 76 691 "},"n":{"x_min":38,"x_max":840,"ha":878,"o":"m 404 58 l 404 0 l 38 0 l 38 58 l 49 58 q 92 61 72 58 q 128 75 113 64 q 152 105 143 85 q 161 157 161 125 l 161 591 q 152 640 161 621 q 127 669 143 658 q 92 682 112 679 q 49 686 71 686 l 45 686 l 45 744 l 265 744 l 283 631 l 290 631 q 335 695 311 670 q 384 733 358 719 q 440 752 411 747 q 502 758 470 758 q 598 742 556 758 q 670 693 640 726 q 715 608 699 660 q 731 485 731 557 l 731 157 q 738 105 731 125 q 760 75 746 85 q 793 61 774 64 q 835 58 812 58 l 840 58 l 840 0 l 603 0 l 603 479 q 595 559 603 524 q 569 619 587 595 q 523 656 551 643 q 453 669 494 669 q 375 650 407 669 q 324 601 344 632 q 297 529 305 570 q 289 443 289 488 l 289 150 q 297 101 289 120 q 322 73 306 83 q 357 61 337 64 q 400 58 377 58 l 404 58 "},"O":{"x_min":76,"x_max":932,"ha":1010,"o":"m 932 496 q 904 287 932 381 q 821 126 876 193 q 687 22 767 59 q 504 -14 607 -14 q 315 22 396 -14 q 182 126 235 59 q 102 287 129 193 q 76 497 76 382 q 102 706 76 612 q 182 867 129 800 q 316 969 235 933 q 506 1006 397 1006 q 688 969 609 1006 q 821 866 767 933 q 904 706 876 799 q 932 496 932 612 m 227 496 q 241 312 227 393 q 290 175 256 231 q 376 90 323 119 q 504 61 428 61 q 633 90 580 61 q 718 175 686 119 q 766 312 751 231 q 781 496 781 393 q 766 680 781 599 q 718 817 751 761 q 633 901 686 872 q 506 931 581 931 q 377 901 430 931 q 290 817 323 872 q 241 680 256 761 q 227 496 227 599 "},"3":{"x_min":79,"x_max":682,"ha":761,"o":"m 337 61 q 414 72 378 61 q 478 110 451 84 q 523 179 506 136 q 540 284 540 222 q 523 363 540 328 q 474 424 506 399 q 396 463 442 449 q 294 477 351 477 l 251 477 l 251 548 l 294 548 q 378 563 339 548 q 445 606 417 578 q 491 673 474 634 q 508 762 508 713 q 500 835 508 803 q 474 889 492 867 q 429 923 456 911 q 362 935 401 935 q 286 918 315 935 q 240 872 257 901 q 217 806 223 844 q 212 728 212 769 q 166 732 187 728 q 129 746 145 736 q 104 774 113 757 q 95 818 95 791 q 112 892 95 858 q 163 952 129 926 q 246 991 196 977 q 362 1005 296 1005 q 479 990 426 1005 q 569 947 531 975 q 627 877 606 918 q 648 783 648 836 q 631 695 648 737 q 586 620 615 654 q 517 563 557 587 q 430 528 477 539 q 484 519 455 525 q 540 500 512 512 q 594 469 568 488 q 639 425 619 451 q 670 363 658 398 q 682 282 682 328 q 667 183 682 227 q 627 106 652 139 q 567 50 601 73 q 495 13 533 27 q 416 -7 456 -1 q 336 -14 375 -14 q 220 -1 269 -14 q 140 32 172 11 q 93 81 108 53 q 79 140 79 109 q 102 205 79 182 q 165 229 125 229 q 176 161 165 192 q 210 108 188 130 q 264 73 232 86 q 337 61 296 61 "},"]":{"x_min":50.859375,"x_max":354,"ha":490,"o":"m 50 -177 l 50 -119 l 109 -119 q 152 -115 132 -119 q 188 -101 173 -112 q 212 -71 203 -91 q 221 -19 221 -51 l 221 897 q 212 949 221 929 q 188 979 203 969 q 152 993 173 990 q 109 997 132 997 l 50 997 l 50 1055 l 354 1055 l 354 -177 l 50 -177 "},"m":{"x_min":38,"x_max":1247.984375,"ha":1286,"o":"m 404 58 l 404 0 l 38 0 l 38 58 l 55 58 q 98 61 79 58 q 131 75 117 64 q 153 105 145 85 q 161 157 161 125 l 161 591 q 153 640 161 621 q 131 669 145 658 q 97 682 117 679 q 55 686 78 686 l 52 686 l 52 744 l 265 744 l 283 631 l 290 631 q 333 695 310 670 q 381 733 355 719 q 435 752 407 747 q 495 758 463 758 q 558 751 528 758 q 613 729 588 744 q 659 690 639 714 q 692 631 679 666 l 703 631 q 748 695 724 670 q 799 733 772 719 q 855 752 826 747 q 917 758 885 758 q 1010 742 968 758 q 1079 693 1051 726 q 1123 608 1108 660 q 1139 485 1139 557 l 1139 157 q 1146 105 1139 125 q 1168 75 1154 85 q 1202 61 1182 64 q 1244 58 1221 58 l 1247 58 l 1247 0 l 1011 0 l 1011 479 q 1003 559 1011 524 q 978 619 995 595 q 934 656 961 643 q 868 669 907 669 q 796 652 825 669 q 750 607 768 635 q 724 541 732 578 q 717 462 717 504 l 717 157 q 724 105 717 125 q 746 75 732 85 q 780 61 760 64 q 822 58 799 58 l 826 58 l 826 0 l 589 0 l 589 479 q 581 559 589 524 q 556 619 573 595 q 512 656 540 643 q 446 669 485 669 q 372 650 402 669 q 323 601 341 632 q 296 529 304 570 q 289 443 289 488 l 289 150 q 297 101 289 120 q 322 73 306 83 q 357 61 337 64 q 400 58 377 58 l 404 58 "},"9":{"x_min":69,"x_max":678,"ha":761,"o":"m 311 61 q 479 163 425 61 q 534 475 534 266 q 503 439 522 456 q 458 409 483 423 q 403 388 433 396 q 337 381 373 381 q 228 398 278 381 q 143 451 179 416 q 88 539 108 486 q 69 663 69 592 q 88 801 69 738 q 146 909 108 863 q 238 979 184 954 q 360 1005 292 1005 q 487 977 430 1005 q 588 893 545 950 q 654 748 630 836 q 678 538 678 660 q 669 396 678 466 q 641 265 660 327 q 592 152 622 203 q 522 62 563 100 q 428 4 481 25 q 309 -16 375 -16 q 213 -5 251 -16 q 152 22 175 5 q 121 60 130 38 q 112 104 112 82 q 124 147 112 129 q 152 170 137 165 q 175 128 161 148 q 208 93 188 109 q 253 69 228 78 q 311 61 279 61 m 366 463 q 427 472 400 463 q 476 496 455 481 q 513 532 497 512 q 538 575 528 553 l 538 578 q 524 735 538 669 q 488 844 511 801 q 432 907 464 887 q 360 928 400 928 q 248 863 288 928 q 209 676 209 799 q 218 578 209 619 q 248 512 228 538 q 298 474 268 486 q 366 463 327 463 "},"l":{"x_min":18,"x_max":404,"ha":422,"o":"m 35 59 q 78 62 58 59 q 114 76 99 65 q 138 106 129 86 q 147 158 147 126 l 147 902 q 138 951 147 933 q 113 980 129 970 q 78 993 98 990 q 35 997 57 997 l 18 997 l 18 1055 l 275 1055 l 275 158 q 283 106 275 126 q 307 76 292 86 q 343 62 322 65 q 386 59 363 59 l 404 59 l 404 1 l 18 1 l 18 59 l 35 59 "},"8":{"x_min":62,"x_max":698,"ha":760,"o":"m 62 248 q 77 336 62 298 q 120 403 93 373 q 186 456 148 432 q 269 501 224 480 q 197 550 230 524 q 142 607 165 576 q 105 675 118 638 q 93 756 93 712 q 109 849 93 804 q 161 928 126 893 q 253 983 196 962 q 387 1005 309 1005 q 501 987 451 1005 q 585 937 551 969 q 638 861 620 905 q 656 765 656 817 q 642 685 656 720 q 605 623 629 651 q 547 574 581 596 q 472 531 513 552 q 564 478 523 506 q 635 418 605 451 q 681 348 665 386 q 698 264 698 310 q 674 147 698 198 q 608 59 651 95 q 505 4 566 23 q 371 -14 445 -14 q 236 6 294 -14 q 140 62 178 26 q 81 145 101 97 q 62 248 62 193 m 377 50 q 458 63 422 50 q 520 102 494 77 q 560 160 546 126 q 574 234 574 194 q 561 299 574 269 q 520 357 548 329 q 445 412 491 386 q 334 468 400 439 q 231 377 269 433 q 194 242 194 321 q 205 163 194 199 q 240 103 217 128 q 297 63 263 77 q 377 50 332 50 m 535 768 q 526 831 535 800 q 499 885 518 861 q 451 924 481 909 q 378 939 422 939 q 311 926 341 939 q 261 891 281 913 q 231 839 241 869 q 221 772 221 808 q 232 705 221 735 q 267 651 244 676 q 325 605 290 627 q 405 562 359 584 q 468 603 443 582 q 508 648 493 623 q 529 702 523 673 q 535 768 535 732 "},"p":{"x_min":18,"x_max":761,"ha":835,"o":"m 460 669 q 371 651 407 669 q 314 596 336 633 q 284 504 293 559 q 275 373 275 448 q 284 245 275 300 q 315 151 293 189 q 372 94 336 113 q 461 75 407 75 q 538 94 506 75 q 590 151 569 113 q 619 245 610 189 q 629 374 629 301 q 619 503 629 448 q 590 595 610 559 q 537 650 569 632 q 460 669 505 669 m 761 373 q 742 199 761 272 q 689 78 724 126 q 602 8 654 31 q 483 -14 550 -14 q 412 -5 444 -14 q 354 19 380 3 q 309 58 329 36 q 275 108 290 81 l 273 108 q 273 41 273 72 q 273 14 273 28 q 273 -11 273 0 q 273 -34 273 -24 q 273 -49 273 -43 l 273 -182 q 282 -231 273 -212 q 307 -260 291 -250 q 343 -272 322 -269 q 387 -276 364 -276 l 391 -276 l 391 -334 l 25 -334 l 25 -276 l 35 -276 q 79 -272 58 -276 q 114 -258 99 -269 q 138 -228 129 -248 q 147 -175 147 -208 l 147 591 q 138 640 147 621 q 113 669 129 658 q 78 682 98 679 q 35 686 58 686 l 18 686 l 18 744 l 256 744 l 270 619 l 275 619 q 310 676 290 650 q 354 720 329 702 q 411 748 379 738 q 483 758 443 758 q 602 735 550 758 q 689 665 654 712 q 742 545 724 618 q 761 373 761 473 "},"4":{"x_min":23,"x_max":741,"ha":760,"o":"m 572 272 l 572 157 q 581 105 572 125 q 605 75 590 85 q 640 61 620 64 q 684 58 661 58 l 702 58 l 702 0 l 292 0 l 292 58 l 330 58 q 373 61 353 58 q 409 75 394 64 q 433 105 424 85 q 442 157 442 125 l 442 272 l 23 272 l 23 328 l 443 990 l 573 990 l 573 350 l 741 350 l 741 272 l 572 272 m 446 606 q 446 673 446 637 q 446 748 446 710 q 446 823 446 786 q 451 894 446 861 q 438 868 447 884 l 418 833 l 395 791 l 370 749 l 347 710 q 329 680 337 692 l 120 350 l 446 350 l 446 606 "}," ":{"x_min":0,"x_max":0,"ha":58},"R":{"x_min":52,"x_max":901.265625,"ha":893,"o":"m 754 169 q 821 85 789 113 q 897 58 854 58 l 901 58 l 901 0 l 882 0 q 777 4 818 0 q 707 22 736 9 q 658 60 679 36 q 615 124 638 85 l 431 437 l 319 437 l 319 150 q 327 101 319 120 q 352 73 336 83 q 387 61 367 64 q 430 58 407 58 l 448 58 l 448 0 l 52 0 l 52 58 l 69 58 q 112 61 91 58 q 147 73 132 64 q 172 101 163 83 q 181 150 181 120 l 181 838 q 172 888 181 869 q 147 916 163 906 q 112 930 132 927 q 69 933 91 933 l 52 933 l 52 991 l 418 991 q 681 924 595 991 q 768 723 768 857 q 750 625 768 667 q 704 553 732 584 q 639 502 675 523 q 567 470 603 482 l 754 169 m 319 502 l 414 502 q 513 515 474 502 q 577 556 553 529 q 611 624 601 583 q 622 719 622 664 q 610 813 622 774 q 574 877 599 853 q 508 913 549 902 q 411 925 468 925 l 319 925 l 319 502 "}," ":{"x_min":0,"x_max":0,"ha":209},"o":{"x_min":75,"x_max":710,"ha":785,"o":"m 710 372 q 628 81 710 177 q 390 -14 547 -14 q 258 9 316 -14 q 159 81 199 33 q 96 202 118 129 q 75 372 75 275 q 155 662 75 567 q 394 757 236 757 q 526 733 468 757 q 625 662 585 710 q 688 542 666 614 q 710 372 710 470 m 206 372 q 216 236 206 295 q 248 138 226 177 q 306 78 271 98 q 393 57 342 57 q 479 78 444 57 q 536 138 514 98 q 568 236 558 177 q 578 372 578 295 q 568 508 578 450 q 536 605 558 566 q 478 664 514 644 q 391 684 443 684 q 305 664 340 684 q 248 605 270 644 q 216 508 226 566 q 206 372 206 450 "},"5":{"x_min":75,"x_max":662,"ha":762,"o":"m 325 67 q 402 78 367 67 q 464 118 438 90 q 505 190 490 145 q 520 301 520 236 q 505 397 520 356 q 463 465 490 438 q 398 505 436 492 q 313 519 360 519 q 252 516 278 519 q 207 509 226 513 q 172 499 187 504 q 145 488 158 493 l 113 498 l 157 989 l 615 989 l 615 779 l 561 779 l 555 821 q 550 846 553 835 q 538 864 546 856 q 516 874 530 871 q 482 878 503 878 l 218 878 l 192 573 q 251 588 212 581 q 351 596 290 596 q 474 577 417 596 q 572 522 530 559 q 638 430 614 486 q 662 302 662 375 q 639 173 662 231 q 575 73 617 114 q 471 8 532 31 q 332 -14 410 -14 q 207 0 256 -14 q 128 32 157 12 q 86 78 98 53 q 75 125 75 102 q 96 186 75 164 q 161 208 117 208 q 171 152 161 178 q 201 107 181 126 q 253 77 222 88 q 325 67 283 67 "}}}
